<?xml version="1.0" standalone="no"?>
<!DOCTYPE svg PUBLIC "-//W3C//DTD SVG 20010904//EN"
 "http://www.w3.org/TR/2001/REC-SVG-20010904/DTD/svg10.dtd">
<svg version="1.0" xmlns="http://www.w3.org/2000/svg"
 width="200.000000pt" height="200.000000pt" viewBox="0 0 200.000000 200.000000"
 preserveAspectRatio="xMidYMid meet">
<metadata>
Created by potrace 1.11, written by Peter Selinger 2001-2013
</metadata>
<g transform="translate(0.000000,200.000000) scale(0.100000,-0.100000)"
fill="#000000" stroke="none">
<path d="M596 1615 c-24 -24 -20 -89 13 -233 16 -70 32 -153 36 -185 l8 -59
-43 -43 c-23 -24 -39 -48 -36 -54 4 -6 21 -14 39 -19 l32 -8 3 -111 3 -111 35
-4 c21 -2 39 1 46 9 6 8 13 68 16 134 3 84 9 125 19 134 18 19 71 33 173 45
231 29 346 50 403 72 21 8 27 17 27 39 0 29 -1 29 -58 29 -31 0 -140 -16 -241
-35 -101 -19 -214 -38 -251 -41 -83 -8 -85 -6 -102 131 -13 105 -9 121 34 142
39 19 193 41 375 53 92 6 201 13 241 16 l72 6 0 39 c0 33 -4 40 -26 45 -38 10
-193 -4 -361 -32 -81 -13 -193 -27 -248 -31 -111 -6 -120 -2 -127 52 -2 25 -8
30 -34 33 -19 2 -38 -3 -48 -13z"/>
<path d="M1677 780 c-3 -14 -9 -69 -13 -123 -5 -69 -10 -95 -17 -88 -19 19
-25 13 -43 -41 l-17 -52 -13 29 c-7 17 -21 48 -30 70 -17 43 -18 43 -44 -27
l-10 -28 -745 0 c-493 0 -745 -3 -745 -10 0 -7 252 -9 752 -8 l751 3 12 35
c11 31 14 33 20 15 5 -11 15 -39 24 -62 9 -23 21 -41 26 -42 6 0 16 17 23 37
23 69 21 67 36 46 8 -10 16 -17 19 -14 2 3 7 36 11 74 6 63 16 102 16 65 1
-45 39 -452 43 -456 8 -7 15 23 42 192 14 87 27 161 29 162 1 2 8 -22 15 -52
12 -52 31 -67 31 -24 0 17 7 19 75 19 47 0 75 4 75 11 0 7 -29 9 -85 7 l-85
-3 -11 58 c-7 31 -15 57 -18 57 -6 0 -39 -196 -49 -287 -2 -24 -7 -43 -11 -43
-4 0 -15 102 -26 228 -10 125 -21 238 -25 252 l-7 25 -6 -25z"/>
<path d="M581 312 c-1 -61 13 -73 54 -46 17 11 25 24 23 38 -3 20 -7 21 -50 9
-12 -4 -18 3 -21 24 -2 16 -5 6 -6 -25z m67 -14 c-6 -16 -36 -34 -44 -25 -9 9
15 37 33 37 8 0 13 -5 11 -12z"/>
<path d="M1471 338 c0 -16 -7 -28 -13 -28 -10 0 -10 -2 -2 -8 7 -4 14 -18 17
-32 l4 -25 2 27 c0 14 7 29 14 31 9 4 9 8 1 14 -7 4 -14 17 -17 28 -4 15 -5
14 -6 -7z"/>
<path d="M395 303 c5 -49 15 -71 15 -35 0 16 6 22 23 22 12 0 29 5 37 10 11 7
5 8 -19 4 -33 -7 -62 13 -40 27 7 4 4 9 -6 12 -14 6 -15 0 -10 -40z"/>
<path d="M458 343 c6 -2 18 -2 25 0 6 3 1 5 -13 5 -14 0 -19 -2 -12 -5z"/>
<path d="M1253 300 c0 -30 2 -43 4 -27 2 15 2 39 0 55 -2 15 -4 2 -4 -28z"/>
<path d="M1398 325 c-3 -14 -2 -25 3 -25 4 0 10 -12 12 -27 4 -27 4 -27 6 4 0
17 7 34 14 36 10 4 10 6 0 6 -7 1 -13 8 -13 16 0 25 -17 17 -22 -10z"/>
<path d="M1054 313 c-13 -51 33 -80 78 -49 26 18 17 22 -11 4 -37 -23 -76 16
-52 53 6 11 7 19 1 19 -5 0 -13 -12 -16 -27z"/>
<path d="M715 321 c-11 -5 -23 -7 -27 -4 -5 2 -8 -13 -7 -34 l1 -38 9 33 c9
29 23 38 52 33 4 0 7 4 7 9 0 12 -7 12 -35 1z"/>
<path d="M510 301 c-15 -29 -12 -51 8 -51 48 1 76 70 27 70 -14 0 -29 -8 -35
-19z m50 2 c0 -10 -32 -43 -42 -43 -12 0 -10 24 4 38 13 13 38 16 38 5z"/>
<path d="M773 285 c0 -22 2 -30 4 -17 2 12 2 30 0 40 -3 9 -5 -1 -4 -23z"/>
<path d="M813 311 c17 -6 17 -8 -2 -25 -30 -27 -26 -36 17 -35 34 1 35 2 8 8
l-28 6 21 19 c28 26 26 36 -6 35 -22 0 -24 -2 -10 -8z"/>
<path d="M870 285 c0 -19 4 -35 8 -35 4 0 6 16 4 35 -2 19 -6 35 -8 35 -2 0
-4 -16 -4 -35z"/>
<path d="M910 305 c-17 -20 -8 -49 16 -53 25 -4 57 30 48 52 -8 20 -47 21 -64
1z m55 -5 c9 -15 -14 -40 -36 -40 -19 0 -27 29 -12 43 10 11 41 8 48 -3z"/>
<path d="M1182 308 c-16 -16 -16 -58 1 -58 7 0 19 6 25 12 10 10 15 10 23 -2
7 -11 9 -6 7 20 -2 26 -8 36 -23 38 -11 1 -26 -3 -33 -10z m48 -5 c0 -10 -32
-43 -42 -43 -12 0 -10 24 4 38 13 13 38 16 38 5z"/>
<path d="M1281 310 c-1 -8 7 -25 17 -38 l18 -23 17 38 17 38 -20 -24 c-11 -13
-22 -22 -24 -20 -2 2 -8 13 -14 24 -8 14 -11 15 -11 5z"/>
<path d="M1360 284 c0 -41 10 -41 14 0 2 15 -1 29 -5 32 -5 3 -9 -12 -9 -32z"/>
<path d="M1523 285 c0 -22 2 -30 4 -17 2 12 2 30 0 40 -3 9 -5 -1 -4 -23z"/>
</g>
</svg>
